<?xml version="1.0" encoding="UTF-8" standalone="no"?>
<!DOCTYPE svg PUBLIC "-//W3C//DTD SVG 1.1//EN" "http://www.w3.org/Graphics/SVG/1.1/DTD/svg11.dtd">
<svg width="250" height="426" viewBox="0 0 250 426" version="1.1" xmlns="http://www.w3.org/2000/svg" xmlns:xlink="http://www.w3.org/1999/xlink" xml:space="preserve" xmlns:serif="http://www.serif.com/" style="fill-rule:evenodd;clip-rule:evenodd;">
    <g id="g9" transform="matrix(0.807637,0,0,0.807894,0.012709,-0.00231794)">
        <path id="path11" d="M8.215,7.436C12.209,7.345 15.96,10.594 16.382,14.578C16.886,18.08 14.827,21.716 11.6,23.136C9.643,24.108 7.436,23.809 5.333,23.859L3.277,23.859L3.277,30.442L0.024,30.442C0.03,25.363 0.011,20.283 0.034,15.203C0.14,11.418 3.239,8.03 6.98,7.526C7.388,7.466 7.803,7.436 8.215,7.436ZM8.215,20.604C10.563,20.661 12.765,18.831 13.116,16.504C13.584,14.163 12.09,11.647 9.807,10.946C7.602,10.162 4.948,11.192 3.871,13.275C3.036,14.699 3.333,16.379 3.277,17.946L3.277,20.604L8.215,20.604ZM17.952,7.357L21.169,7.357L21.169,23.779L17.952,23.779L17.952,7.357ZM30.841,17.685L30.956,17.685L35.531,23.785L39.519,23.785L33.302,15.339L38.815,7.365L34.827,7.365L30.956,12.994L30.84,12.994L26.969,7.365L22.981,7.365L28.493,15.34L22.278,23.783L26.265,23.783L30.841,17.685Z" style="fill:rgb(51,51,51);fill-rule:nonzero;"/>
        <path id="path13" d="M46.81,7.357C50.069,7.293 53.194,9.428 54.401,12.442C55.029,13.843 55.019,15.393 54.999,16.896L54.999,23.779C52.096,23.769 49.19,23.799 46.284,23.763C42.947,23.601 39.893,21.166 38.938,17.971C38.062,15.195 38.789,11.97 40.853,9.893C42.393,8.3 44.583,7.338 46.807,7.359L46.81,7.357ZM51.748,20.524C51.734,18.698 51.778,16.871 51.723,15.046C51.531,12.6 49.265,10.55 46.81,10.614C44.475,10.557 42.275,12.367 41.909,14.677C41.481,16.896 42.756,19.313 44.872,20.14C46.176,20.708 47.617,20.472 48.995,20.522L51.75,20.522L51.748,20.524ZM64.801,7.436C68.655,7.342 72.258,10.375 72.872,14.169C73.569,17.769 71.537,21.655 68.185,23.136C64.911,24.682 60.701,23.686 58.45,20.856C57.056,19.212 56.453,17.025 56.572,14.894L56.572,0.854L59.827,0.854L59.827,7.437L64.802,7.437L64.801,7.436ZM64.801,20.604C67.273,20.669 69.532,18.594 69.714,16.134C70.023,13.69 68.212,11.232 65.793,10.788C64.455,10.603 63.097,10.728 61.749,10.688L59.827,10.688C59.847,12.545 59.782,14.403 59.865,16.256C60.124,18.706 62.339,20.648 64.802,20.599L64.801,20.604ZM82.438,7.357C85.697,7.293 88.823,9.428 90.03,12.442C90.659,13.843 90.65,15.393 90.63,16.896L90.63,23.779C87.726,23.769 84.821,23.799 81.915,23.763C78.579,23.601 75.524,21.166 74.569,17.971C73.692,15.195 74.419,11.97 76.483,9.893C78.022,8.3 80.211,7.338 82.435,7.359L82.438,7.357ZM87.375,20.524C87.362,18.698 87.405,16.871 87.352,15.046C87.162,12.6 84.895,10.55 82.441,10.614C80.106,10.557 77.905,12.367 77.541,14.677C77.113,16.896 78.387,19.313 80.502,20.14C81.805,20.708 83.245,20.472 84.623,20.522L87.376,20.522L87.375,20.524ZM108.546,7.396C108.54,12.464 108.56,17.532 108.536,22.599C108.418,26.587 104.99,30.171 100.99,30.379C100.23,30.419 99.468,30.393 98.707,30.399L98.707,27.145C100.097,27.138 101.582,27.28 102.811,26.493C104.349,25.63 105.325,23.891 105.291,22.133C102.405,24.461 97.933,24.341 95.127,21.939C93.083,20.289 91.966,17.634 92.124,15.022L92.124,7.397L95.378,7.397C95.393,10.296 95.349,13.197 95.402,16.095C95.579,18.435 97.628,20.433 99.974,20.551C102.392,20.8 104.773,18.977 105.193,16.587C105.376,15.249 105.253,13.887 105.29,12.539L105.29,7.399L108.547,7.399L108.546,7.396Z" style="fill:rgb(51,51,51);fill-rule:nonzero;"/>
    </g>
    <path id="path15" d="M165.997,15.884L161.584,11.452C163.429,8.996 163.203,5.264 161.1,3.031C159.078,0.763 155.472,0.162 152.85,1.706C150.33,3.111 148.923,6.248 149.608,9.073C150.251,12.024 153.064,14.346 156.092,14.302C157.486,14.309 158.88,13.854 160.01,13.034C161.507,14.533 162.994,16.042 164.5,17.536C165.409,18.343 166.987,16.985 166.112,16.01L165.999,15.883L165.997,15.884ZM156.145,12.719C153.546,12.791 151.152,10.548 151.029,7.938C150.825,5.488 152.598,3.048 155.003,2.552C157.324,1.999 159.93,3.283 160.85,5.508C161.853,7.759 160.997,10.684 158.858,11.944C158.051,12.449 157.1,12.724 156.146,12.719L156.145,12.719Z" style="fill:white;fill-rule:nonzero;"/>
    <path id="path19" d="M68.211,251.625C67.534,251.924 66.807,252.128 66.045,252.219C66.824,251.751 67.422,251.014 67.703,250.132C66.974,250.563 66.167,250.876 65.309,251.046C64.622,250.313 63.64,249.855 62.556,249.855C60.121,249.855 58.331,252.125 58.88,254.486C55.747,254.33 52.967,252.828 51.108,250.546C50.12,252.241 50.595,254.46 52.275,255.582C51.657,255.564 51.075,255.392 50.566,255.111C50.526,256.859 51.778,258.492 53.592,258.856C53.061,259.001 52.479,259.035 51.888,258.921C52.367,260.42 53.761,261.511 55.411,261.541C53.826,262.783 51.829,263.339 49.828,263.103C51.499,264.174 53.481,264.799 55.612,264.799C62.614,264.799 66.571,258.884 66.332,253.58C67.067,253.048 67.706,252.384 68.212,251.627L68.211,251.625Z" style="fill:rgb(85,85,85);fill-rule:nonzero;"/>
    <path id="path21" d="M110.086,202.402C111.128,202.402 112.063,201.835 112.701,201.406L112.701,209.519C112.064,209.947 111.127,210.515 110.087,210.515C109.046,210.515 108.113,210.206 107.474,209.778C106.837,209.348 105.9,209.039 104.86,209.039C103.819,209.039 102.885,209.571 102.246,210L102.246,201.888C102.883,201.46 103.82,200.93 104.861,200.93C105.901,200.93 106.838,201.239 107.476,201.667C108.114,202.096 109.05,202.404 110.09,202.404L110.086,202.402ZM100.5,200.056C100.981,200.056 101.372,200.446 101.372,200.927L101.372,214L99.628,214L99.628,200.927C99.628,200.446 100.021,200.056 100.502,200.056L100.5,200.056Z" style="fill:white;fill-rule:nonzero;"/>
    <path id="path23" d="M99.627,100.452L121.54,100.452L121.54,102.444L99.627,102.444L99.627,100.452ZM99.627,107.424L121.54,107.424L121.54,109.416L99.627,109.416L99.627,107.424ZM99.627,114.396L121.54,114.396L121.54,116.388L99.627,116.388L99.627,114.396Z" style="fill:rgb(99,99,99);fill-rule:nonzero;"/>
    <g transform="matrix(0.571429,0,0,0.571429,30.6866,13.8865)">
        <g id="g31">
            <g>
                <g transform="matrix(1,0,0,1,121.298,63.1986)">
                    <path d="M8.363,21.438C7.713,21.438 7.093,21.173 6.651,20.7C6.296,20.316 6.06,19.815 6.001,19.283C5.795,19.342 5.558,19.372 5.322,19.372C4.525,19.372 3.787,18.959 3.344,18.28C3.285,18.191 3.226,18.073 3.167,17.955L0.068,24.449C-0.168,24.98 0.245,25.541 0.806,25.482L3.344,25.217C3.61,25.187 3.876,25.305 4.023,25.541L5.44,27.667C5.765,28.139 6.473,28.08 6.71,27.578L9.868,20.936C9.868,20.936 9.868,20.907 9.839,20.907C9.425,21.261 8.894,21.438 8.363,21.438Z" style="fill:white;fill-rule:nonzero;"/>
                </g>
                <g transform="matrix(1,0,0,1,121.298,63.1986)">
                    <path d="M23.801,24.449L20.731,18.014C20.672,18.132 20.613,18.221 20.554,18.309C20.111,18.988 19.373,19.401 18.576,19.401C18.34,19.401 18.104,19.372 17.868,19.283C17.809,19.815 17.602,20.316 17.218,20.7C16.776,21.172 16.156,21.438 15.506,21.438C14.945,21.438 14.444,21.261 14.03,20.907L14.001,20.936L17.159,27.578C17.395,28.109 18.133,28.139 18.429,27.667L19.816,25.541C19.964,25.305 20.229,25.187 20.524,25.217L23.063,25.482C23.624,25.571 24.037,24.98 23.801,24.449Z" style="fill:white;fill-rule:nonzero;"/>
                </g>
                <g transform="matrix(1,0,0,1,121.298,63.1986)">
                    <path d="M14.669,18.949C15.322,19.654 16.485,19.174 16.457,18.215L16.457,18.186C16.429,17.424 17.224,16.916 17.905,17.227L17.933,17.227C18.813,17.622 19.693,16.747 19.296,15.872C18.984,15.194 19.495,14.404 20.261,14.432L20.29,14.432C21.226,14.46 21.709,13.303 21.028,12.653L20.999,12.625C20.432,12.117 20.63,11.186 21.34,10.932C22.22,10.593 22.22,9.351 21.34,9.012C20.63,8.758 20.432,7.826 20.999,7.318L21.028,7.29C21.709,6.641 21.226,5.483 20.29,5.512L20.261,5.512C19.495,5.54 18.984,4.749 19.296,4.072C19.693,3.225 18.785,2.322 17.933,2.717L17.905,2.717C17.195,3.028 16.429,2.519 16.457,1.757L16.457,1.729C16.485,0.797 15.322,0.318 14.669,0.995C14.158,1.56 13.221,1.362 12.937,0.656C12.596,-0.219 11.347,-0.219 11.006,0.656L11.006,0.685C10.723,1.39 9.814,1.56 9.303,1.023C8.65,0.346 7.486,0.826 7.515,1.757L7.515,1.785C7.543,2.548 6.748,3.056 6.067,2.745C5.187,2.35 4.307,3.253 4.704,4.1C5.016,4.778 4.505,5.568 3.739,5.54L3.71,5.54C2.774,5.512 2.291,6.669 2.972,7.318L3.001,7.347C3.568,7.855 3.37,8.786 2.66,9.04C1.78,9.379 1.78,10.621 2.66,10.96C3.37,11.214 3.568,12.145 3.001,12.653L2.972,12.682C2.291,13.331 2.774,14.488 3.71,14.46L3.739,14.46C4.505,14.432 5.016,15.222 4.704,15.9C4.307,16.775 5.215,17.65 6.067,17.255C6.776,16.944 7.543,17.452 7.515,18.215L7.515,18.243C7.486,19.174 8.65,19.654 9.303,18.977C9.814,18.412 10.751,18.61 11.006,19.316L11.006,19.344C11.347,20.219 12.596,20.219 12.937,19.344C13.221,18.581 14.129,18.384 14.669,18.949ZM11.972,16.295C8.451,16.295 5.612,13.444 5.612,9.972C5.612,6.5 8.451,3.649 11.972,3.649C15.492,3.649 18.331,6.5 18.331,9.972C18.331,13.444 15.492,16.295 11.972,16.295Z" style="fill:white;fill-rule:nonzero;"/>
                </g>
                <g transform="matrix(1,0,0,1,121.298,63.1986)">
                    <path d="M8,10C8,7.8 9.8,6 12,6C14.2,6 16,7.8 16,10C16,12.2 14.2,14 12,14C9.8,14 8,12.2 8,10Z" style="fill:white;fill-rule:nonzero;"/>
                </g>
            </g>
        </g>
    </g>
    <g id="g39" transform="matrix(1,0,0,1,0.0059761,0.00170865)">
        <path id="path41" d="M61.417,357.101L60.877,357.101C60.801,357.101 60.736,357.126 60.686,357.177C60.636,357.227 60.611,357.294 60.611,357.374L60.611,360.107C60.611,360.482 60.479,360.804 60.215,361.071C59.951,361.338 59.633,361.473 59.263,361.473L52.251,361.473C51.879,361.473 51.564,361.34 51.298,361.072C51.032,360.804 50.902,360.484 50.902,360.109L50.902,353.007C50.902,352.632 51.035,352.31 51.299,352.044C51.563,351.778 51.881,351.641 52.252,351.641L58.185,351.641C58.265,351.641 58.329,351.616 58.379,351.565C58.429,351.512 58.455,351.447 58.455,351.368L58.455,350.82C58.455,350.74 58.429,350.675 58.379,350.624C58.33,350.574 58.264,350.547 58.185,350.547L52.251,350.547C51.584,350.547 51.012,350.788 50.538,351.268C50.063,351.749 49.825,352.328 49.825,353.005L49.825,360.107C49.825,360.782 50.064,361.362 50.537,361.842C51.011,362.323 51.583,362.563 52.25,362.563L59.262,362.563C59.929,362.563 60.502,362.324 60.975,361.842C61.451,361.362 61.689,360.782 61.689,360.106L61.689,357.375C61.689,357.295 61.663,357.23 61.613,357.178C61.563,357.128 61.498,357.102 61.419,357.102L61.417,357.101Z" style="fill:white;fill-rule:nonzero;"/>
        <path id="path43" d="M64.761,349.617C64.655,349.507 64.529,349.454 64.382,349.454L60.07,349.454C59.922,349.454 59.796,349.508 59.689,349.617C59.583,349.724 59.53,349.853 59.53,350C59.53,350.147 59.583,350.276 59.689,350.384L61.173,351.886L55.678,357.451C55.625,357.506 55.597,357.571 55.597,357.645C55.597,357.719 55.625,357.785 55.68,357.842L56.642,358.814C56.698,358.871 56.762,358.898 56.836,358.898C56.909,358.898 56.975,358.871 57.03,358.813L62.524,353.248L64.008,354.75C64.115,354.86 64.241,354.913 64.386,354.913C64.532,354.913 64.659,354.859 64.767,354.751C64.874,354.641 64.926,354.515 64.926,354.367L64.926,349.997C64.926,349.85 64.874,349.721 64.767,349.614L64.761,349.617Z" style="fill:white;fill-rule:nonzero;"/>
    </g>
    <path id="path45" d="M206.201,250.49C202.7,250.49 199.862,252.918 199.862,255.915C199.862,257.479 200.638,258.883 201.874,259.873C201.641,260.505 201.248,261.331 200.579,262.175C201.847,262.175 203.477,262 204.734,261.189C205.206,261.286 205.696,261.341 206.202,261.341C209.706,261.341 212.545,258.91 212.545,255.915C212.545,252.92 209.706,250.49 206.204,250.49L206.201,250.49Z" style="fill:none;fill-rule:nonzero;stroke:white;stroke-width:1.26px;"/>
    <g id="g47" transform="matrix(1,0,0,1,0.0059761,0.00170865)">
        <path id="path49" d="M162.496,352.016L162.496,360.552L152.038,360.552L152.038,352.016L162.496,352.016M163.368,351.162L151.166,351.162L151.166,361.406L163.368,361.406L163.368,351.162ZM149.423,349.454L149.423,359.699L150.297,359.699L150.297,350.309L161.626,350.309L161.626,349.454L149.423,349.454Z" style="fill:white;fill-rule:nonzero;"/>
        <rect id="path51" x="151.727" y="351.677" width="11.016" height="9.357" style="fill:white;"/>
    </g>
    <g id="g53" transform="matrix(1,0,0,1,0.0059761,0.00170865)">
        <rect id="path55" x="203.227" y="150.248" width="4.004" height="6.529" style="fill:rgb(102,102,102);"/>
        <g id="path57" transform="matrix(0.8037,0,0,0.77824,535.524,420.475)">
            <g>
                <clipPath id="_clip1">
                    <path d="M-418.715,-341.175L-410.969,-348.959L-403.222,-341.175L-410.969,-333.391L-418.715,-341.175Z"/>
                </clipPath>
                <g clip-path="url(#_clip1)">
                    <rect x="-418.436" y="-339.789" width="14.94" height="10.008" style="fill:rgb(102,102,102);"/>
                </g>
            </g>
        </g>
    </g>
    <path id="path59" d="M211.786,129.944L208.63,132.984L209.348,137.305L205.477,135.246L201.587,137.263L202.35,132.95L199.227,129.876L203.57,129.269L205.529,125.353L207.448,129.291L211.786,129.944ZM205.125,100.45C201.869,100.45 199.227,102.727 199.227,105.537C199.227,107.001 199.95,108.319 201.1,109.247C200.883,109.84 200.517,110.615 199.894,111.406C201.075,111.406 202.592,111.242 203.759,110.48C204.199,110.572 204.655,110.624 205.126,110.624C208.386,110.624 211.028,108.347 211.028,105.537C211.028,102.728 208.386,100.45 205.128,100.45L205.125,100.45Z" style="fill:rgb(102,102,102);fill-rule:nonzero;"/>
    <path id="path61" d="M199.229,352.651L199.229,358.465C199.229,358.99 199.657,359.416 200.181,359.416L210.574,359.416C211.099,359.416 211.525,358.99 211.525,358.465L211.525,352.651L199.229,352.651ZM211.525,351.518C211.525,350.99 211.1,350.566 210.574,350.566L205.457,350.566C204.931,350.566 204.399,350.317 204.268,350.011C204.134,349.704 203.603,349.456 203.078,349.456L200.654,349.456C200.129,349.456 199.599,349.705 199.466,350.011C199.334,350.318 199.227,350.991 199.227,351.517L199.227,351.698L211.522,351.698L211.522,351.515L211.525,351.518ZM160.053,156.173L150.672,150.45C149.987,150.009 149.427,150.334 149.427,151.172L149.427,162.282C149.427,163.121 149.987,163.445 150.672,163.004L160.051,157.281C160.051,157.281 160.383,157.05 160.383,156.727C160.383,156.404 160.052,156.173 160.052,156.173L160.053,156.173ZM157.984,252.133L161.097,255.245L153.629,262.712L150.517,259.599L157.985,252.131L157.984,252.133ZM161.687,254.624L158.608,251.542L159.927,250.222C160.415,249.734 161.202,249.734 161.69,250.222L163.01,251.54C163.496,252.026 163.496,252.815 163.01,253.3L161.687,254.624ZM149.739,263.802L149.428,263.49L150.245,260.884L152.347,262.986L149.739,263.803L149.739,263.802Z" style="fill:white;fill-rule:nonzero;"/>
    <path id="path63" d="M207.795,180.629C207.795,181.604 207.115,182.392 206.273,182.392C205.432,182.392 204.749,181.604 204.749,180.629C204.749,179.655 205.432,178.867 206.273,178.867C207.115,178.867 207.797,179.655 207.797,180.629L207.795,180.629ZM213.173,180.341C213.173,180.341 210.703,185.112 206.211,185.112C202.04,185.112 199.229,180.341 199.229,180.341C199.229,180.341 201.814,176.147 206.211,176.147C210.681,176.147 213.173,180.341 213.173,180.341ZM208.978,180.627C208.978,178.894 207.765,177.492 206.269,177.492C204.775,177.492 203.563,178.896 203.563,180.627C203.563,182.359 204.778,183.765 206.272,183.765C207.766,183.765 208.981,182.361 208.981,180.627L208.978,180.627Z" style="fill:rgb(102,102,102);fill-rule:nonzero;"/>
    <path id="path65" d="M68.211,301.426C67.534,301.725 66.807,301.929 66.045,302.02C66.824,301.552 67.422,300.815 67.703,299.933C66.974,300.364 66.167,300.677 65.309,300.847C64.622,300.114 63.64,299.655 62.556,299.655C60.121,299.655 58.331,301.926 58.88,304.287C55.747,304.13 52.967,302.628 51.108,300.347C50.12,302.042 50.595,304.261 52.275,305.382C51.657,305.365 51.075,305.193 50.566,304.911C50.526,306.659 51.778,308.293 53.592,308.656C53.061,308.802 52.479,308.836 51.888,308.722C52.367,310.221 53.761,311.312 55.411,311.342C53.826,312.584 51.829,313.139 49.828,312.903C51.499,313.975 53.481,314.6 55.612,314.6C62.614,314.6 66.571,308.685 66.332,303.38C67.067,302.849 67.706,302.185 68.212,301.428L68.211,301.426Z" style="fill:white;fill-rule:nonzero;"/>
    <path id="path67" d="M160.813,109.559C160.813,112.071 158.771,114.111 156.259,114.111C153.747,114.111 151.707,112.071 151.707,109.559C151.707,107.047 153.747,105.005 156.259,105.005L158.536,105.005L158.549,107.296L161.971,103.87L158.549,100.453L158.549,102.731L156.258,102.731C152.489,102.731 149.429,105.789 149.429,109.561C149.429,113.333 152.491,116.389 156.262,116.389C160.033,116.389 163.092,113.332 163.092,109.56L160.816,109.56L160.813,109.559Z" style="fill:rgb(102,102,102);fill-rule:nonzero;"/>
    <path id="path69" d="M156.151,52.442L158.598,54.886L152.731,60.753L150.285,58.31L156.151,52.44L156.151,52.442ZM159.062,54.397L156.641,51.977L157.677,50.941C158.061,50.56 158.68,50.56 159.062,50.941L160.098,51.977C160.481,52.362 160.481,52.98 160.098,53.362L159.062,54.397ZM149.675,61.613L149.429,61.368L150.073,59.32L151.723,60.971L149.675,61.613Z" style="fill:rgb(128,128,128);fill-rule:nonzero;"/>
    <g id="g71" transform="matrix(1,0,0,1,0.0059761,0.00170865)">
        <path id="path73" d="M213.244,57.094C212.714,56.558 212.009,56.231 211.266,56.163C211.91,55.586 212.319,54.749 212.319,53.815C212.319,52.067 210.9,50.649 209.153,50.649C207.483,50.649 206.116,51.941 205.998,53.58C207.484,54.222 208.528,55.701 208.528,57.421C208.528,58.049 208.385,58.66 208.12,59.217C208.501,59.416 208.855,59.675 209.163,59.986C209.952,60.778 210.401,61.875 210.39,62.994L210.39,63.037L210.361,63.565L214.135,63.565L214.165,59.384C214.173,58.528 213.837,57.709 213.235,57.104L213.244,57.094Z" style="fill:white;fill-rule:nonzero;"/>
        <path id="path75" d="M206.444,59.781C207.088,59.203 207.496,58.367 207.496,57.43C207.496,55.684 206.079,54.267 204.331,54.267C202.583,54.267 201.166,55.684 201.166,57.431C201.166,58.361 201.573,59.197 202.215,59.779C200.57,59.906 199.271,61.268 199.257,62.946L199.227,63.576L209.323,63.576L209.353,62.993C209.36,62.14 209.024,61.318 208.421,60.712C207.887,60.174 207.186,59.849 206.443,59.781L206.444,59.781Z" style="fill:white;fill-rule:nonzero;"/>
    </g>
    <path id="path81" d="M106.722,305.631L106.722,308.022L110.761,308.022C110.6,309.048 109.541,311.03 106.727,311.03C104.3,311.03 102.318,309.058 102.318,306.627C102.318,304.195 104.296,302.222 106.723,302.222C108.109,302.222 109.034,302.8 109.561,303.298L111.493,301.477C110.252,300.339 108.645,299.654 106.726,299.654C102.791,299.654 99.612,302.767 99.612,306.626C99.612,310.481 102.793,313.599 106.726,313.599C110.833,313.599 113.556,310.77 113.556,306.786C113.556,306.328 113.504,305.975 113.443,305.63L106.722,305.631Z" style="fill:white;"/>
    <path id="path89" d="M22.825,212.707L19.946,212.752L19.976,206.382C19.976,206.382 22.426,206.567 23.024,206.308C23.524,206.178 26.842,204.385 27.845,203.356C28.691,202.597 28.98,201.819 29.307,200.812C29.568,199.796 30.52,200.015 30.937,200.254C31.482,200.57 31.549,201.275 31.492,201.852C31.419,202.29 31.218,202.972 30.89,203.589C30.638,204.063 30.219,204.47 30.119,204.637C29.991,204.843 29.478,205.24 29.678,205.305C30.771,205.55 31.275,205.618 32.826,206.03C33.413,206.355 33.556,206.445 33.722,207.061C33.842,207.693 33.5,208.43 32.972,208.903C32.873,208.959 32.42,209.526 32.42,209.526C32.42,209.526 31.253,212.817 30.642,213.515C30.254,213.862 29.988,213.943 29.54,213.998C29.261,213.998 28.056,213.942 26.694,213.775C25.053,213.519 23.979,212.741 22.828,212.707L22.825,212.707ZM84.395,205.41L80.715,208.956L81.552,213.998L77.04,211.596L72.498,213.949L73.39,208.919L69.748,205.334L74.815,204.626L77.102,200.055L79.34,204.649L84.395,205.41Z" style="fill:white;fill-rule:nonzero;"/>
    <path id="path91" d="M201.726,210.9L199.23,210.938L199.258,205.48C199.258,205.48 201.382,205.639 201.9,205.416C202.336,205.305 205.214,203.769 206.084,202.886C206.817,202.234 207.07,201.568 207.353,200.705C207.579,199.833 208.404,200.02 208.767,200.227C209.239,200.496 209.297,201.102 209.247,201.596C209.185,201.972 209.011,202.556 208.726,203.084C208.507,203.492 208.143,203.841 208.057,203.983C207.947,204.159 207.502,204.501 207.675,204.557C208.622,204.766 209.06,204.826 210.404,205.179C210.912,205.455 211.037,205.534 211.181,206.061C211.286,206.602 210.988,207.234 210.531,207.639C210.444,207.687 210.053,208.173 210.053,208.173C210.053,208.173 209.04,210.997 208.509,211.595C208.173,211.893 207.941,211.963 207.553,212.009C207.31,212.009 206.268,211.962 205.085,211.82C203.66,211.601 202.729,210.933 201.73,210.903L201.726,210.9Z" style="fill:rgb(102,102,102);fill-rule:nonzero;"/>
    <path id="path93" d="M226.122,249.853C222.272,249.853 219.149,252.544 219.149,255.865C219.149,257.596 220.006,259.151 221.364,260.249C221.108,260.949 220.674,261.865 219.939,262.801C221.334,262.801 223.126,262.607 224.508,261.707C225.026,261.815 225.566,261.876 226.122,261.876C229.973,261.876 233.094,259.184 233.094,255.865C233.094,252.545 229.973,249.853 226.122,249.853Z" style="fill:white;fill-rule:nonzero;"/>
    <path id="path95" d="M3.287,212.177L0.682,212.218L0.709,206.449C0.709,206.449 2.927,206.619 3.467,206.383C3.92,206.265 6.923,204.641 7.831,203.708C8.597,203.02 8.858,202.317 9.155,201.402C9.391,200.483 10.254,200.68 10.631,200.899C11.125,201.184 11.184,201.823 11.133,202.346C11.068,202.743 10.885,203.361 10.589,203.918C10.361,204.348 9.981,204.718 9.89,204.87C9.775,205.055 9.31,205.414 9.491,205.476C10.48,205.697 10.936,205.757 12.342,206.13C12.871,206.422 13.001,206.505 13.15,207.062C13.26,207.635 12.95,208.304 12.472,208.733C12.382,208.784 11.973,209.297 11.973,209.297C11.973,209.297 10.915,212.279 10.363,212.912C10.012,213.226 9.771,213.301 9.366,213.35C9.112,213.35 8.022,213.3 6.789,213.147C5.302,212.916 4.33,212.21 3.288,212.18L3.287,212.177Z" style="fill:none;fill-rule:nonzero;stroke:white;stroke-width:1.31px;"/>
    <path id="path97" d="M63.771,205.562L60.425,208.786L61.186,213.37L57.083,211.185L52.956,213.325L53.767,208.751L50.454,205.489L55.059,204.847L57.139,200.691L59.174,204.87L63.771,205.562Z" style="fill:none;fill-rule:nonzero;stroke:white;stroke-width:1.26px;stroke-linejoin:round;"/>
    <path id="path99" d="M161.812,209.791C161.082,209.791 160.425,210.103 159.959,210.602L154.514,207.889C154.534,207.763 154.546,207.633 154.546,207.501C154.546,207.372 154.533,207.245 154.516,207.123L159.954,204.439C160.419,204.942 161.08,205.256 161.812,205.256C163.224,205.256 164.37,204.093 164.37,202.656C164.37,201.218 163.224,200.054 161.814,200.054C160.403,200.054 159.254,201.219 159.254,202.655C159.254,202.785 159.268,202.91 159.284,203.034L153.849,205.716C153.382,205.214 152.723,204.899 151.99,204.899C150.576,204.899 149.43,206.065 149.43,207.501C149.43,208.938 150.576,210.103 151.99,210.103C152.72,210.103 153.375,209.788 153.843,209.29L159.288,212.002C159.268,212.128 159.256,212.258 159.256,212.39C159.256,213.828 160.401,214.992 161.814,214.992C163.226,214.992 164.374,213.827 164.374,212.389C164.374,210.952 163.228,209.788 161.814,209.788L161.812,209.791Z" style="fill:rgb(119,119,119);fill-rule:nonzero;"/>
    <path id="path101" d="M156.892,299.655C152.767,299.655 149.422,303 149.422,307.125C149.422,310.183 151.262,312.813 153.894,313.968C153.873,313.446 153.889,312.82 154.024,312.252L154.984,308.182C154.984,308.182 154.745,307.707 154.745,307.002C154.745,305.894 155.387,305.068 156.187,305.068C156.867,305.068 157.193,305.578 157.193,306.189C157.193,306.872 156.759,307.892 156.536,308.839C156.347,309.632 156.932,310.278 157.714,310.278C159.128,310.278 160.081,308.46 160.081,306.307C160.081,304.669 158.978,303.444 156.973,303.444C154.706,303.444 153.294,305.133 153.294,307.02C153.294,307.672 153.486,308.131 153.787,308.486C153.926,308.649 153.944,308.715 153.894,308.902L153.742,309.502C153.692,309.691 153.539,309.759 153.368,309.689C152.325,309.263 151.839,308.121 151.839,306.836C151.839,304.714 153.629,302.168 157.177,302.168C160.031,302.168 161.908,304.232 161.908,306.447C161.908,309.375 160.278,311.567 157.876,311.567C157.07,311.567 156.313,311.128 156.052,310.634C156.052,310.634 155.62,312.358 155.527,312.688C155.368,313.266 155.059,313.84 154.775,314.288C155.447,314.487 156.156,314.595 156.892,314.595C161.018,314.595 164.363,311.25 164.363,307.125C164.363,302.999 161.018,299.654 156.892,299.654L156.892,299.655ZM14.94,302.145C14.94,300.839 13.759,299.655 12.45,299.655L2.49,299.655C1.182,299.655 0,300.839 0,302.145L0,312.106C0,313.415 1.182,314.596 2.49,314.596L7.47,314.596L7.47,308.953L5.646,308.953L5.646,306.463L7.472,306.463L7.472,305.491C7.472,303.818 8.729,302.31 10.273,302.31L12.287,302.31L12.287,304.8L10.271,304.8C10.052,304.8 9.795,305.069 9.795,305.469L9.795,306.46L12.285,306.46L12.285,308.95L9.795,308.95L9.795,314.596L12.449,314.596C13.757,314.596 14.939,313.415 14.939,312.106L14.939,302.145L14.94,302.145Z" style="fill:white;fill-rule:nonzero;"/>
    <path id="path103" d="M14.941,252.345C14.941,251.038 13.759,249.855 12.451,249.855L2.491,249.855C1.182,249.855 0.001,251.038 0.001,252.345L0.001,262.305C0.001,263.615 1.182,264.795 2.491,264.795L7.471,264.795L7.471,259.152L5.645,259.152L5.645,256.662L7.471,256.662L7.471,255.69C7.471,254.017 8.728,252.509 10.272,252.509L12.286,252.509L12.286,254.999L10.27,254.999C10.051,254.999 9.794,255.268 9.794,255.668L9.794,256.659L12.284,256.659L12.284,259.149L9.794,259.149L9.794,264.795L12.448,264.795C13.756,264.795 14.938,263.615 14.938,262.305L14.938,252.345L14.941,252.345Z" style="fill:rgb(85,85,85);fill-rule:nonzero;"/>
    <path id="path105" d="M108.328,233.918L99.613,233.918C97.893,233.918 96.5,235.313 96.5,237.031L96.5,245.746C96.5,247.464 97.894,248.859 99.613,248.859L108.328,248.859C110.047,248.859 111.44,247.464 111.44,245.746L111.44,237.031C111.44,235.312 110.046,233.918 108.328,233.918ZM101.895,244.294C100.289,244.294 98.99,242.994 98.99,241.388C98.99,239.782 100.289,238.483 101.895,238.483C102.679,238.483 103.336,238.769 103.842,239.242L103.055,240.002C102.84,239.795 102.461,239.554 101.897,239.554C100.905,239.554 100.097,240.375 100.097,241.388C100.097,242.401 100.903,243.223 101.896,243.223C103.046,243.223 103.477,242.396 103.544,241.97L101.898,241.97L101.898,240.974L104.641,240.974C104.667,241.119 104.688,241.263 104.688,241.455C104.688,243.115 103.575,244.294 101.899,244.294L101.895,244.294ZM108.95,241.804L107.705,241.804L107.705,243.049L106.875,243.049L106.875,241.804L105.629,241.804L105.629,240.974L106.875,240.974L106.875,239.729L107.705,239.729L107.705,240.974L108.95,240.974L108.95,241.804Z" style="fill:none;fill-rule:nonzero;"/>
    <path id="path107" d="M103.746,349.456C101.455,349.456 99.606,351.252 99.606,353.47L99.606,360.382C99.606,362.601 101.456,364.396 103.746,364.396L110.406,364.396C112.697,364.396 114.546,362.601 114.546,360.382L114.546,353.47C114.546,351.252 112.696,349.456 110.406,349.456L103.746,349.456ZM111.216,351.853C111.766,351.853 112.212,352.299 112.212,352.849C112.212,353.399 111.766,353.845 111.216,353.845C110.665,353.845 110.22,353.399 110.22,352.849C110.22,352.299 110.665,351.853 111.216,351.853ZM107.076,352.911C109.277,352.911 111.06,354.694 111.06,356.895C111.06,359.094 109.277,360.879 107.076,360.879C104.875,360.879 103.092,359.094 103.092,356.895C103.092,354.694 104.875,352.911 107.076,352.911ZM107.076,354.405C105.691,354.405 104.556,355.541 104.556,356.925C104.556,358.31 105.691,359.445 107.076,359.445C108.462,359.445 109.598,358.31 109.598,356.925C109.598,355.541 108.462,354.405 107.076,354.405Z" style="fill:rgb(85,85,85);fill-rule:nonzero;"/>
    <path id="path109" d="M203.349,299.655C201.06,299.655 199.209,301.451 199.209,303.669L199.209,310.582C199.209,312.8 201.06,314.596 203.349,314.596L210.01,314.596C212.299,314.596 214.149,312.8 214.149,310.582L214.149,303.669C214.149,301.451 212.299,299.655 210.01,299.655L203.349,299.655ZM210.819,302.052C211.369,302.052 211.815,302.498 211.815,303.048C211.815,303.599 211.369,304.044 210.819,304.044C210.269,304.044 209.823,303.599 209.823,303.048C209.823,302.498 210.269,302.052 210.819,302.052ZM206.679,303.111C208.88,303.111 210.663,304.893 210.663,307.095C210.663,309.293 208.88,311.079 206.679,311.079C204.478,311.079 202.695,309.293 202.695,307.095C202.695,304.893 204.478,303.111 206.679,303.111ZM206.679,304.605C205.295,304.605 204.159,305.74 204.159,307.125C204.159,308.509 205.295,309.644 206.679,309.644C208.064,309.644 209.199,308.509 209.199,307.125C209.199,305.74 208.064,304.605 206.679,304.605Z" style="fill:white;fill-rule:nonzero;"/>
    <path id="path3035" d="M19.52,118.141L14.329,112.927C16.5,110.036 16.233,105.644 13.758,103.018C11.38,100.352 7.137,99.645 4.051,101.461C1.085,103.113 -0.571,106.804 0.235,110.127C0.992,113.602 4.3,116.33 7.863,116.281C9.503,116.289 11.141,115.754 12.472,114.788C14.235,116.552 15.986,118.329 17.756,120.084C18.825,121.034 20.681,119.436 19.651,118.29L19.519,118.14L19.52,118.141ZM7.93,114.417C4.871,114.501 2.055,111.862 1.91,108.79C1.67,105.91 3.756,103.039 6.589,102.454C9.319,101.804 12.385,103.315 13.467,105.931C14.646,108.582 13.64,112.024 11.125,113.506C10.172,114.1 9.053,114.422 7.934,114.417L7.93,114.417Z" style="fill:rgb(99,99,99);fill-rule:nonzero;"/>
    <path id="path17-1" d="M215.793,15.884L211.38,11.452C213.226,8.996 213,5.264 210.896,3.031C208.875,0.763 205.269,0.162 202.646,1.706C200.126,3.111 198.72,6.248 199.404,9.073C200.048,12.024 202.861,14.346 205.888,14.302C207.283,14.309 208.677,13.854 209.807,13.034C211.304,14.533 212.791,16.042 214.296,17.536C215.205,18.343 216.783,16.985 215.907,16.01L215.795,15.883L215.793,15.884ZM205.942,12.719C203.343,12.791 200.949,10.548 200.826,7.938C200.622,5.488 202.394,3.048 204.8,2.552C207.121,1.999 209.727,3.283 210.646,5.508C211.649,7.759 210.794,10.684 208.654,11.944C207.848,12.449 206.896,12.724 205.943,12.719L205.942,12.719Z" style="fill:rgb(99,99,99);fill-rule:nonzero;"/>
    <path id="path3044" d="M99.63,150.253L121.543,150.253L121.543,152.245L99.63,152.245L99.63,150.253ZM99.63,157.225L121.543,157.225L121.543,159.217L99.63,159.217L99.63,157.225ZM99.63,164.197L121.543,164.197L121.543,166.189L99.63,166.189L99.63,164.197Z" style="fill:white;fill-rule:nonzero;"/>
    <g id="g3046" transform="matrix(1,0,0,1,-49.8246,0.00170865)">
        <path id="path3048" d="M57.291,159.27C60.053,159.27 61.046,156.76 61.307,154.7C61.627,152.16 60.304,150.251 57.293,150.251C54.281,150.251 52.957,152.161 53.277,154.7C53.538,156.762 54.532,159.272 57.291,159.27Z" style="fill:white;fill-rule:nonzero;"/>
        <path id="path3050" d="M64.761,165.244C64.731,164.444 64.627,163.64 64.474,162.854C64.288,161.9 64.05,160.503 63.132,159.88C62.603,159.522 61.915,159.402 61.308,159.187C61.012,159.082 60.747,158.978 60.499,158.859C59.662,159.692 58.567,160.129 57.292,160.129C56.02,160.129 54.926,159.691 54.085,158.858C53.839,158.977 53.574,159.084 53.278,159.189C52.67,159.405 51.983,159.523 51.453,159.882C50.537,160.503 50.298,161.901 50.112,162.855C49.959,163.641 49.856,164.445 49.826,165.245C49.803,165.865 50.139,165.952 50.71,166.138C51.427,166.374 52.164,166.547 52.907,166.689C54.342,166.964 55.823,167.177 57.296,167.185C58.77,167.175 60.249,166.966 61.684,166.69C62.427,166.548 63.165,166.375 63.88,166.14C64.453,165.954 64.79,165.868 64.767,165.248L64.761,165.244Z" style="fill:white;fill-rule:nonzero;"/>
    </g>
    <path id="path4" d="M150.335,380.239L155.712,386.016L161.091,380.239" style="fill:none;fill-rule:nonzero;stroke:rgb(135,138,158);stroke-width:1.79px;stroke-linecap:round;stroke-linejoin:round;"/>
    <path id="path6" d="M107.599,249.855L106.194,251.259L111.752,256.827L99.63,256.827L99.63,258.819L111.752,258.819L106.194,264.386L107.599,265.791L115.567,257.823L107.599,249.855Z" style="fill:white;fill-rule:nonzero;"/>
    <g id="g3855" transform="matrix(1,0,0,1,-0.988788,0)">
        <path id="path3043" d="M60.54,54.558C60.437,54.805 60.078,55.064 59.882,54.879L58.059,53.151L58.059,60.638C58.059,61.005 57.637,61.303 57.271,61.303C56.904,61.303 56.482,61.005 56.482,60.638L56.482,53.382L54.702,54.879C54.497,55.052 54.192,54.717 54.089,54.469C53.986,54.221 53.955,54.024 54.145,53.834L56.801,51.177C57.061,50.918 57.48,50.918 57.74,51.177L60.396,53.834C60.586,54.024 60.643,54.309 60.54,54.558Z" style="fill:white;fill-rule:nonzero;stroke:white;stroke-width:0.63px;"/>
        <path id="path3045" d="M61.527,65.591L53.071,65.592C51.972,65.592 51.079,64.697 51.079,63.6L51.079,58.6C51.079,58.233 51.376,57.935 51.743,57.935C52.11,57.935 52.406,58.233 52.406,58.6L52.406,63.6C52.406,63.965 52.705,64.263 53.071,64.263L61.527,64.263C61.893,64.263 62.191,63.965 62.191,63.599L62.191,58.599C62.191,58.232 62.489,57.935 62.856,57.935C63.222,57.935 63.519,58.232 63.519,58.599L63.519,63.599C63.519,64.697 62.625,65.591 61.527,65.591Z" style="fill:white;fill-rule:nonzero;stroke:white;stroke-width:0.53px;"/>
    </g>
    <path id="path3841" d="M10.749,57.376C10.646,57.128 10.244,56.873 10.047,57.055L8.268,58.694L8.268,51.647C8.268,51.281 7.846,50.983 7.479,50.983C7.113,50.983 6.69,51.281 6.69,51.647L6.69,58.596L4.823,56.966C4.622,56.79 4.313,57.128 4.21,57.376C4.107,57.625 4.164,57.91 4.354,58.1L7.01,60.756C7.27,61.016 7.689,61.016 7.949,60.756L10.605,58.1C10.795,57.91 10.852,57.625 10.749,57.376Z" style="fill:white;fill-rule:nonzero;stroke:white;stroke-width:0.63px;"/>
    <path id="path3843" d="M12.732,65.591L2.289,65.592C1.19,65.592 0.297,64.697 0.297,63.6L0.297,57.532C0.297,57.165 0.594,56.868 0.96,56.868C1.327,56.868 1.625,57.165 1.625,57.532L1.625,63.6C1.625,63.965 1.922,64.263 2.289,64.263L12.732,64.263C13.098,64.263 13.396,63.965 13.396,63.599L13.396,57.575C13.396,57.208 13.693,56.911 14.06,56.911C14.426,56.911 14.724,57.208 14.724,57.575L14.724,63.599C14.724,64.697 13.831,65.591 12.732,65.591Z" style="fill:white;fill-rule:nonzero;stroke:white;stroke-width:0.53px;"/>
    <g transform="matrix(0.983959,0,0,1.0163,148.433,118.528)">
        <g id="g3826">
            <g id="text3921">
                <g id="g3056">
                    <g id="rect3919" transform="matrix(1.0163,0,0,0.983959,0,0)">
                        <path d="M-110.556,267.781C-110.556,266.681 -111.448,265.789 -112.548,265.789L-146.412,265.789C-147.512,265.789 -148.404,266.681 -148.404,267.781L-148.404,301.645C-148.404,302.745 -147.512,303.637 -146.412,303.637L-112.548,303.637C-111.448,303.637 -110.556,302.745 -110.556,301.645L-110.556,267.781Z" style="fill:rgb(25,27,38);"/>
                    </g>
                    <path id="path3051" d="M-138.419,269.9C-140.497,269.952 -142.223,270.665 -143.598,272.041C-144.972,273.415 -145.686,275.141 -145.738,277.218L-145.738,290.45L-142.83,290.45L-142.83,284.57L-138.419,284.57C-136.341,284.516 -134.61,283.798 -133.225,282.413C-131.841,281.029 -131.122,279.297 -131.069,277.218C-131.122,275.141 -131.841,273.415 -133.225,272.041C-134.61,270.665 -136.341,269.952 -138.419,269.9ZM-142.83,281.661L-142.83,277.218C-142.799,275.963 -142.371,274.921 -141.544,274.095C-140.716,273.268 -139.675,272.839 -138.419,272.808C-137.148,272.839 -136.098,273.268 -135.267,274.095C-134.436,274.921 -134.006,275.963 -133.976,277.218C-134.006,278.49 -134.436,279.541 -135.267,280.372C-136.098,281.201 -137.148,281.631 -138.419,281.661L-142.83,281.661Z" style="fill:white;fill-rule:nonzero;"/>
                    <path id="path3053" d="M-125.197,279.089L-125.093,279.089L-121.006,284.537L-117.444,284.537L-122.997,276.993L-118.073,269.869L-121.635,269.869L-125.093,274.897L-125.197,274.897L-128.654,269.869L-132.217,269.869L-127.293,276.993L-132.846,284.537L-129.283,284.537L-125.197,279.089Z" style="fill:white;fill-rule:nonzero;"/>
                </g>
            </g>
        </g>
    </g>
    <g id="g3058" transform="matrix(1,0,0,1,60.2882,391.436)">
        <rect id="path3048-1" x="0" y="0.849" width="23.904" height="23.904" style="fill:none;"/>
    </g>
    <g id="g3840" transform="matrix(0.638889,0,0,0.638889,50.1622,99.9412)">
        <path id="path3832" d="M11.972,0.849C18.56,0.86 23.904,6.21 23.904,12.801C23.904,19.397 18.55,24.753 11.952,24.753C5.356,24.753 0,19.397 0,12.801C0,6.21 5.346,0.86 11.933,0.849L11.972,0.849ZM15.651,16.785L8.254,16.785C8.89,21.034 10.487,23.757 11.952,23.757C13.418,23.757 15.015,21.034 15.651,16.785M22.16,16.785L16.659,16.785C16.235,19.758 15.344,22.165 14.184,23.529C17.839,22.772 20.829,20.192 22.16,16.785M7.246,16.785L1.744,16.785C3.077,20.192 6.067,22.772 9.721,23.529C8.562,22.165 7.67,19.758 7.246,16.785M7.124,9.813L1.41,9.813C1.081,10.974 0.672,13.188 1.41,15.789L7.124,15.789C6.936,13.982 6.909,11.879 7.124,9.813M15.78,9.813L8.125,9.813C7.931,11.606 7.901,13.724 8.125,15.789L15.78,15.789C15.975,13.985 16.003,11.875 15.78,9.813M22.495,9.813L16.782,9.813C16.844,10.402 17.089,12.82 16.782,15.789L22.495,15.789C23.233,13.187 22.825,10.973 22.495,9.813M9.721,2.073C6.067,2.83 3.077,5.409 1.744,8.817L7.246,8.817C7.67,5.844 8.562,3.435 9.721,2.073M15.651,8.817C15.015,4.568 13.418,1.845 11.952,1.845C10.487,1.845 8.89,4.568 8.254,8.817L15.651,8.817ZM14.184,2.073C15.344,3.435 16.235,5.844 16.659,8.817L22.16,8.817C20.829,5.409 17.839,2.83 14.184,2.073" style="fill:white;stroke:white;stroke-width:1.04px;"/>
    </g>
    <g transform="matrix(0.219178,0,0,0.219178,99.6056,378.486)">
        <path d="M36.355,73.558C32.61,73.558 29.93,70.741 27.784,68.488C26.871,67.378 25.779,66.427 24.556,65.672C23.064,65.301 21.521,65.182 19.989,65.322C16.761,65.322 13.124,65.443 10.566,62.901C8.008,60.359 8.16,56.72 8.221,53.493C8.365,51.961 8.245,50.417 7.871,48.925C7.116,47.703 6.164,46.612 5.055,45.698C2.863,43.627 0,40.948 0,37.203C0,33.458 2.863,30.779 5.054,28.632C6.164,27.719 7.116,26.627 7.871,25.404C8.245,23.912 8.364,22.37 8.221,20.838C8.221,17.625 8.1,13.972 10.641,11.429C13.184,8.886 16.838,8.948 20.065,9.009C21.597,9.151 23.14,9.035 24.632,8.658C25.855,7.903 26.944,6.952 27.86,5.842C29.93,3.711 32.61,0.849 36.355,0.849C40.1,0.849 42.779,3.711 44.925,5.918C45.839,7.028 46.93,7.979 48.153,8.734C49.645,9.109 51.188,9.228 52.72,9.085C55.948,9.085 59.587,8.963 62.143,11.505C64.701,14.048 64.625,17.701 64.565,20.913C64.421,22.445 64.54,23.989 64.914,25.481C65.669,26.703 66.622,27.795 67.731,28.708C69.847,30.779 72.709,33.458 72.709,37.203C72.709,40.948 69.847,43.627 67.655,45.774C66.545,46.687 65.594,47.779 64.839,49.002C64.464,50.494 64.346,52.037 64.488,53.569C64.488,56.781 64.611,60.435 62.068,62.977C59.526,65.52 55.872,65.458 52.644,65.397C51.113,65.253 49.569,65.372 48.077,65.748C46.855,66.503 45.765,67.454 44.85,68.565C42.779,70.695 40.1,73.558 36.355,73.558Z" style="fill:white;fill-opacity:0.1;fill-rule:nonzero;"/>
    </g>
    <g transform="matrix(0.125245,0,0,0.125245,95.4152,383.341)">
        <g>
            <g transform="matrix(4.5625,0,0,4.5625,36.6066,-26.6718)">
                <path d="M14,28C12.558,28 11.526,26.915 10.699,26.048C10.348,25.62 9.927,25.254 9.456,24.963C8.882,24.82 8.287,24.774 7.698,24.828C6.455,24.828 5.054,24.875 4.069,23.896C3.084,22.917 3.142,21.516 3.166,20.273C3.221,19.683 3.175,19.089 3.031,18.514C2.74,18.044 2.374,17.623 1.946,17.271C1.102,16.474 0,15.442 0,14C0,12.558 1.102,11.526 1.946,10.699C2.374,10.348 2.74,9.927 3.031,9.456C3.175,8.882 3.221,8.287 3.166,7.698C3.166,6.461 3.119,5.054 4.098,4.075C5.077,3.095 6.484,3.119 7.727,3.142C8.317,3.198 8.911,3.152 9.486,3.008C9.957,2.717 10.376,2.35 10.729,1.923C11.526,1.102 12.558,0 14,0C15.442,0 16.474,1.102 17.301,1.952C17.652,2.38 18.073,2.746 18.544,3.037C19.118,3.181 19.712,3.227 20.302,3.172C21.545,3.172 22.946,3.125 23.931,4.104C24.916,5.083 24.887,6.49 24.863,7.727C24.808,8.317 24.854,8.911 24.998,9.486C25.289,9.956 25.656,10.377 26.083,10.729C26.898,11.526 28,12.558 28,14C28,15.442 26.898,16.474 26.054,17.301C25.626,17.652 25.26,18.073 24.969,18.544C24.825,19.118 24.779,19.712 24.834,20.302C24.834,21.539 24.881,22.946 23.902,23.926C22.923,24.905 21.516,24.881 20.273,24.858C19.683,24.802 19.089,24.848 18.514,24.993C18.044,25.283 17.624,25.65 17.271,26.077C16.474,26.898 15.442,28 14,28ZM8.266,22.401C8.986,22.368 9.706,22.478 10.383,22.724C11.177,23.125 11.88,23.686 12.446,24.371C12.957,24.905 13.619,25.573 13.994,25.573C14.369,25.573 15.032,24.905 15.542,24.371C16.109,23.686 16.811,23.125 17.606,22.724C18.475,22.434 19.395,22.327 20.308,22.407C20.988,22.407 21.926,22.407 22.178,22.184C22.43,21.961 22.413,21.012 22.401,20.314C22.321,19.401 22.428,18.481 22.718,17.611C23.119,16.817 23.68,16.115 24.365,15.548C24.899,15.038 25.567,14.375 25.567,14C25.567,13.625 24.899,12.962 24.365,12.452C23.68,11.885 23.119,11.183 22.718,10.389C22.428,9.519 22.32,8.599 22.401,7.686C22.401,7.006 22.401,6.068 22.178,5.816C21.956,5.564 21.006,5.575 20.308,5.593C19.395,5.673 18.476,5.565 17.606,5.276C16.811,4.875 16.109,4.314 15.542,3.629C15.032,3.095 14.369,2.427 13.994,2.427C13.619,2.427 12.957,3.095 12.446,3.629C11.879,4.314 11.177,4.875 10.383,5.276C9.513,5.565 8.593,5.673 7.68,5.593C7,5.593 6.062,5.593 5.81,5.816C5.558,6.039 5.575,6.988 5.587,7.686C5.667,8.599 5.56,9.519 5.271,10.389C4.869,11.183 4.308,11.885 3.623,12.452C3.09,12.962 2.421,13.625 2.421,14C2.421,14.375 3.09,15.038 3.623,15.548C4.308,16.115 4.869,16.817 5.271,17.611C5.56,18.481 5.668,19.401 5.587,20.314C5.587,20.994 5.587,21.932 5.81,22.184C6.033,22.436 6.982,22.419 7.68,22.407L8.266,22.401Z" style="fill:white;fill-rule:nonzero;"/>
            </g>
            <g transform="matrix(4.5625,0,0,4.5625,36.6066,-26.6718)">
                <path d="M12.827,18.139C12.553,18.14 12.286,18.046 12.071,17.875L9.14,15.53C8.619,15.113 8.535,14.351 8.952,13.83C9.37,13.309 10.131,13.225 10.653,13.642L12.74,15.313L17.248,10.805C17.721,10.332 18.487,10.332 18.96,10.805C19.432,11.278 19.432,12.044 18.96,12.517L13.684,17.793C13.455,18.017 13.148,18.141 12.827,18.139Z" style="fill:white;fill-rule:nonzero;"/>
            </g>
        </g>
    </g>
</svg>
